<svg xmlns="http://www.w3.org/2000/svg">
<symbol id="cart" viewBox="0 0 100 100">
  <path d="M94.224 18.366a1.497 1.497 0 0 0-1.138-.523H22.308l-2.886-9.672A1.502 1.502 0 0 0 17.984 7.1H6.915a1.5 1.5 0 1 0 0 3h9.951L35.1 71.204c.002.007.008.013.01.02l2.265 7.704a7.814 7.814 0 0 0-2.316 5.557c0 4.33 3.521 7.853 7.848 7.853 4.188 0 7.609-3.308 7.82-7.451h19.659c-.001.055-.008.109-.008.165 0 4.326 3.519 7.846 7.844 7.846s7.845-3.52 7.845-7.846-3.52-7.846-7.845-7.846c-3.199 0-5.952 1.928-7.171 4.681H50.299a7.804 7.804 0 0 0-1.848-2.947 7.787 7.787 0 0 0-5.541-2.298h-.002c-1.029 0-2.01.204-2.911.566l-1.45-4.933H85.22c.741 0 1.371-.541 1.482-1.273l7.867-51.433a1.499 1.499 0 0 0-.345-1.203zM78.222 80.207c2.671 0 4.845 2.174 4.845 4.846s-2.174 4.846-4.845 4.846-4.844-2.174-4.844-4.846 2.173-4.846 4.844-4.846zm-35.314-.564h.001c1.291 0 2.505.504 3.419 1.419a4.812 4.812 0 0 1 1.418 3.425c0 2.676-2.171 4.853-4.84 4.853a4.856 4.856 0 0 1-4.848-4.853 4.853 4.853 0 0 1 4.85-4.844zm41.023-10.367H37.664l-2.836-9.648a1.498 1.498 0 0 0-.152-.338L23.203 20.843h68.136l-7.408 48.433z"/>
</symbol>
<symbol id="home" viewBox="0 0 100 100">
    <path d="M92.345 44.125 50.53 8.39a1.5 1.5 0 0 0-1.959.008L7.646 44.005a1.5 1.5 0 1 0 1.969 2.263l8.818-7.672v47.872a1.5 1.5 0 0 0 1.5 1.5h58.605a1.5 1.5 0 0 0 1.5-1.5V37.554l10.357 8.851a1.498 1.498 0 1 0 1.95-2.28zM77.038 84.969H21.433V35.986L49.564 11.51l27.474 23.48v49.979z"/>
  <path d="M33.45 41.326v28.78a1.5 1.5 0 0 0 1.5 1.5h28.778a1.5 1.5 0 0 0 1.5-1.5v-28.78a1.5 1.5 0 0 0-1.5-1.5H34.95a1.5 1.5 0 0 0-1.5 1.5zm17.499 27.28V57.217h11.279v11.389H50.949zm11.28-14.389h-11.28V42.826h11.279v11.391zM36.45 42.826h11.499v12.335a1.489 1.489 0 0 0 0 1.112v12.332H36.45V42.826z"/>
</symbol>
</svg>
